<svg>
  <defs>
    <g xmlns="http://www.w3.org/2000/svg" id="ship" viewBox="0 0 512 512" style="height: 100%; width: 100%;">
      <path d="M248.672 23.266l-64 32 61.566 15.39V87h19.524V23.266h-17.09zM146.334 105c13.692 21.145 20.243 47.388 20.164 73.742-.08 26.744-6.98 53.69-20.805 75.793h234.23c16.93-18.827 26.41-46.276 26.677-74.15.267-27.947-8.674-55.727-26.647-75.385h-233.62zM416 155.244L441 231h62v-14h-39v-18h39v-1.438l-32-16v-15.076l-55-11.242zm-371.492 6.61c-6.67.12-13.668 2.495-18.922 7.833-9.12 9.27-9.382 21.518-7.256 29.637 2.126 8.12 6.344 13.905 6.344 13.905l14.652-10.46s-2.4-3.49-3.584-8.006c-1.183-4.518-1.444-8.27 2.672-12.452 1.932-1.962 4.236-2.685 7.53-2.43 3.293.257 7.228 1.863 10.148 4.263s4.68 5.353 5.068 8.025c.388 2.67-.034 5.552-3.86 9.822l-.06.065-.054.064c-19.097 22.143-25.463 40.51-25.323 78.704.14 38.193.465 69.313 40.77 97.133l-56.87 48.746 11.714 13.666 61.35-52.585c2.307 1.25 4.674 2.5 7.173 3.75 7.86.786 15.04 1.502 22.164 2.21l-38.45 32.958 11.714 13.666 51.55-44.186c11.823 1.147 22.805 2.183 32.77 3.06l-32.035 27.46 11.715 13.665 45.582-39.07c12.314.895 23.462 1.514 34.158 1.87L207.713 426.7l11.715 13.666 43.027-36.882c12.13-.13 24.454-.622 38.07-1.482l-28.812 24.697 11.715 13.666 47.427-40.653c12.838-1.1 27.384-2.48 43.473-4.053l-37.316 30.943 11.49 13.858 57.848-47.967c3.278-.327 6.228-.62 9.65-.963 50.065-50.065 60.964-100.13 63.338-142.535H441.68c-13.08 22.76-22.973 42.718-48.78 57.828 3.594 6.09 5.67 13.167 5.67 20.707 0 22.537-18.463 41-41 41-12.906 0-24.468-6.062-32-15.47-7.53 9.408-19.094 15.47-32 15.47-12.906 0-24.468-6.062-32-15.47-7.53 9.408-19.094 15.47-32 15.47-14.623 0-27.523-7.777-34.785-19.392-7.262 11.615-20.162 19.392-34.785 19.392-22.537 0-41-18.463-41-41 0-.17.012-.338.014-.508-29.774-3.39-49.577-21.213-64.58-42.46-5.57-7.888-4.7-17.596-4.704-25.907-.005-11.62 3.798-24.738 21.084-44.78l-.113.128c6.645-7.412 9.443-16.39 8.275-24.428-1.17-8.04-5.742-14.646-11.455-19.342-5.714-4.695-12.713-7.72-20.18-8.3a29.262 29.262 0 0 0-2.832-.084zm201.73 110.68v17.59a41.43 41.43 0 0 1 15.332 11.88 41.789 41.789 0 0 1 4.192-4.49v-24.98h-19.524zm-86.238 32c-12.81 0-23 10.192-23 23 0 12.81 10.19 23 23 23s23-10.19 23-23c0-12.808-10.19-23-23-23zm69.57 0c-12.81 0-23 10.192-23 23 0 12.81 10.19 23 23 23s23-10.19 23-23c0-12.808-10.19-23-23-23zm64 0c-12.81 0-23 10.192-23 23 0 12.81 10.19 23 23 23s23-10.19 23-23c0-12.808-10.19-23-23-23zm64 0c-12.81 0-23 10.192-23 23 0 12.81 10.19 23 23 23s23-10.19 23-23c0-12.808-10.19-23-23-23z"/>
    </g>
    <g xmlns="http://www.w3.org/2000/svg" id="wreck" viewBox="0 0 512 512" style="height: 100%; width: 100%;">
      <path d="M94.371 87.72l-14.676 26.54-40.927-24.873L20.07 120.15l42.192 25.641-14.575 26.357 15.752 8.71 46.684-84.426zM112 128c-12.406 17.74-28.85 57.069-31.646 80.46-1.51 12.633.156 22.758 2.863 26.73 1.353 1.985 2.479 2.81 4.902 3.314 2.424.504 6.516.344 12.47-1.736l12.307-4.301-.341 13.033c-.303 11.499 4.752 25.295 12.767 38.895 2.02-17.074 8.016-34.148 14.38-51.221-3.64 27.491-2.424 52.21 2.58 74.762 5.335 6.22 11.051 12.027 16.863 17.103 12.204 10.66 24.815 18.15 32.767 20.356 3.976 1.103 6.375.725 6.908.488.533-.237.76.118 1.239-2.805 1.542-9.415.807-30.268 1.867-55.385 1.003-23.768 5.305-54.726 14.319-83.528C197.233 181.141 160.156 136.151 112 128zm118.8 88.178c-5.788 19.743-8.61 39.331-10.005 57.353l9.666 17.95-10.805 4.714c-.187 7.113-.234 13.586-.285 19.766l19.652-8.576.092.17 33.059-14.541-.043-.08 93.627-40.862-7.201-16.498-94.989 41.457zm178.991 48.681c-44.479 57.958-86.364 118.263-184.195 170.905 1.367 1.082 2.706 2.157 4.013 3.199C239.647 446.963 248.1 453 256 453c7.9 0 16.353-6.037 26.39-14.037 10.038-8 21.66-17.963 37.61-17.963s27.572 9.963 37.61 17.963C367.646 446.963 376.1 453 384 453c1.082 0 2.174-.124 3.28-.34a748.512 748.512 0 0 0 4.878-22.088l-18.887-31.648 18.26-13.344-16.855-15.451 29.488-17.693c3.11-29.2 4.82-58.325 5.627-87.577zm17.697 9.9c-1.878 54.857-7.063 109.735-19.025 165.718.642-.505 1.273-.992 1.928-1.514 8.532-6.8 18.212-15.017 30.72-17.328l7.094-4.451c.06-4.398.102-8.788.115-13.163l-13.947-2.99s6.643-16.46 13.211-32.105c-1.693-33.026-6.783-64.837-20.096-94.166zm-146.754 34.153l-33.058 14.541 30.902 57.39a407.377 407.377 0 0 0 28.238-23.491zM139.338 331.25l-15.188 6.629 7.2 16.498 22.902-9.996a189.539 189.539 0 0 1-6.947-5.783 212.624 212.624 0 0 1-7.967-7.348zm-44.631 49.92c-2.589.006-5.186.17-7.824.549-3.313.677-6.773 1.252-9.541 3.2 1.69 2.914 4.871 5.5 7.146 7.085 6.59 4.538 17.22 9.18 29.512 12.04 12.292 2.863 23.877 3.394 31.793 2.233 3.313-.677 6.771-1.253 9.539-3.2-1.694-2.913-4.87-5.5-7.144-7.085-6.59-4.538-17.218-9.177-29.51-12.039-8.513-1.382-16.205-2.8-23.971-2.783zm60.625 21.906c.13.305.063.281.121.03.059-.252.128-.244-.121-.03zm-86.457-.457c-2.918 6.024-5.2 12.191-6.947 18.436A43.474 43.474 0 0 1 64 421c15.95 0 27.572 9.963 37.61 17.963C111.646 446.963 120.1 453 128 453c6.132 0 12.607-3.657 19.887-9.025 1.978-6.92 3.63-13.802 4.754-20.66a60.452 60.452 0 0 1-4.235.77c-10.999 1.614-24.335.786-38.488-2.509-14.153-3.295-26.483-8.443-35.639-14.748a55.04 55.04 0 0 1-5.404-4.209zM64 439c-13.413 0-26.972 6.374-39 13.35v21.064c.916-.582 1.815-1.16 2.768-1.746C40.264 463.988 56.099 457 64 457c7.9 0 16.353 6.037 26.39 14.037 10.038 8 21.66 17.963 37.61 17.963s27.572-9.963 37.61-17.963C175.646 463.037 184.1 457 192 457c7.9 0 16.353 6.037 26.39 14.037 10.038 8 21.66 17.963 37.61 17.963s27.572-9.963 37.61-17.963C303.646 463.037 312.1 457 320 457c7.9 0 16.354 6.037 26.39 14.037 10.038 8 21.66 17.963 37.61 17.963s27.572-9.963 37.61-17.963C431.646 463.037 440.1 457 448 457c7.9 0 23.736 6.989 36.232 14.668.953.585 1.852 1.164 2.768 1.746V452.35c-12.028-6.976-25.587-13.35-39-13.35-15.95 0-27.572 9.963-37.61 17.963C400.354 464.963 391.9 471 384 471c-7.9 0-16.353-6.037-26.39-14.037-10.038-8-21.66-17.963-37.61-17.963s-27.572 9.963-37.61 17.963C272.354 464.963 263.9 471 256 471c-7.9 0-16.353-6.037-26.39-14.037-10.038-8-21.66-17.963-37.61-17.963s-27.572 9.963-37.61 17.963C144.354 464.963 135.9 471 128 471c-7.9 0-16.353-6.037-26.39-14.037C91.571 448.963 79.95 439 64 439z"/>
    </g>
    <g xmlns="http://www.w3.org/2000/svg" id="bombing" viewBox="0 0 512 512" style="height: 100%; width: 100%;">
      <path d="M288.625 19.625C252.95 45.54 233.16 81.95 226.655 126.938l41.095 23.687c9.348-5.82 17.33-12.415 24.22-19.656 4.383 22.757 20.633 45.578 39.874 56.686l65.5 37.813c24.465 14.124 54.433 9.697 73.812-8.907l7.97 4.593 17.312-30-7.938-4.594c6.426-26.087-4.752-54.28-29.22-68.406l-65.5-37.812c-19.76-11.41-48.63-13.89-70.78-5.53 2.947-10.077 5.108-20.605 6.688-31.47l-41.063-23.72zm12.313 174.97c-49.957 19.17-84.558 55.62-106.313 106.31l40.688 40.72c12.79-3.888 24.24-9.11 34.593-15.438-2 28.05 9.847 59.878 28.906 78.938l64.907 64.906c24.242 24.245 60.782 28.477 89.342 12.75l7.875 7.876 29.72-29.72-7.844-7.873c15.736-28.564 11.465-65.097-12.782-89.344l-64.905-64.908c-19.58-19.58-52.628-31.56-81.22-28.718 6.62-10.884 12.457-22.543 17.72-34.78l-40.688-40.72zm-182.157.655c-35.453-.015-68.357 12.318-99 35.22l12.72 47.468c11.113 2.584 21.805 3.602 32.156 3.343-13.452 19.88-18.267 48.465-12.312 70.69l20.28 75.686c7.576 28.27 32.77 46.972 60.595 47.53l2.468 9.19 34.656-9.282-2.47-9.188c23.81-14.4 36.262-43.205 28.69-71.47l-20.25-75.686c-6.117-22.822-25.445-45.77-47.783-55.875 9.534-5.22 18.83-11.36 27.94-18.156l-12.72-47.44c-8.458-1.34-16.787-2.027-24.97-2.03z" style="touch-action:none"/>
    </g>
  </defs>
</svg>
